<mxfile modified="2022-05-24T09:29:27.377Z" host="app.diagrams.net" agent="5.0 (Windows NT 10.0; Win64; x64) AppleWebKit/537.36 (KHTML, like Gecko) Chrome/101.0.4951.54 Safari/537.36 Edg/101.0.1210.39" etag="rSvVIGkjHefjhMMg2Fh7" version="17.4.5" type="github">
  <diagram id="Ht1M8jgEwFfnCIfOTk4-" name="Page-1">
    <mxGraphModel dx="782" dy="426" grid="1" gridSize="10" guides="1" tooltips="1" connect="1" arrows="1" fold="1" page="1" pageScale="1" pageWidth="1169" pageHeight="827" math="0" shadow="0">
      <root>
        <mxCell id="0" />
        <mxCell id="1" parent="0" />
        <mxCell id="UEzPUAAOIrF-is8g5C7q-74" value="AWS" style="points=[[0,0],[0.25,0],[0.5,0],[0.75,0],[1,0],[1,0.25],[1,0.5],[1,0.75],[1,1],[0.75,1],[0.5,1],[0.25,1],[0,1],[0,0.75],[0,0.5],[0,0.25]];outlineConnect=0;gradientColor=none;html=1;whiteSpace=wrap;fontSize=12;fontStyle=0;shape=mxgraph.aws4.group;grIcon=mxgraph.aws4.group_aws_cloud_alt;strokeColor=#232F3E;fillColor=none;verticalAlign=top;align=left;spacingLeft=30;fontColor=#232F3E;dashed=0;labelBackgroundColor=#ffffff;container=1;pointerEvents=0;collapsible=0;recursiveResize=0;" parent="1" vertex="1">
          <mxGeometry x="260" y="120" width="710" height="401" as="geometry" />
        </mxCell>
        <mxCell id="D5x38RxMxP4ojH3yNYhL-5" value="IAM" style="outlineConnect=0;dashed=0;verticalLabelPosition=bottom;verticalAlign=top;align=center;html=1;shape=mxgraph.aws3.iam;fillColor=#759C3E;gradientColor=none;" parent="UEzPUAAOIrF-is8g5C7q-74" vertex="1">
          <mxGeometry x="289" y="10" width="20" height="30" as="geometry" />
        </mxCell>
        <mxCell id="D5x38RxMxP4ojH3yNYhL-6" value="KMS" style="outlineConnect=0;dashed=0;verticalLabelPosition=bottom;verticalAlign=top;align=center;html=1;shape=mxgraph.aws3.kms;fillColor=#759C3E;gradientColor=none;" parent="UEzPUAAOIrF-is8g5C7q-74" vertex="1">
          <mxGeometry x="345.7" y="10" width="30" height="31" as="geometry" />
        </mxCell>
        <mxCell id="D5x38RxMxP4ojH3yNYhL-8" value="EC2" style="sketch=0;points=[[0,0,0],[0.25,0,0],[0.5,0,0],[0.75,0,0],[1,0,0],[0,1,0],[0.25,1,0],[0.5,1,0],[0.75,1,0],[1,1,0],[0,0.25,0],[0,0.5,0],[0,0.75,0],[1,0.25,0],[1,0.5,0],[1,0.75,0]];outlineConnect=0;fontColor=#232F3E;gradientColor=#F78E04;gradientDirection=north;fillColor=#D05C17;strokeColor=#ffffff;dashed=0;verticalLabelPosition=bottom;verticalAlign=top;align=center;html=1;fontSize=12;fontStyle=0;aspect=fixed;shape=mxgraph.aws4.resourceIcon;resIcon=mxgraph.aws4.ec2;" parent="UEzPUAAOIrF-is8g5C7q-74" vertex="1">
          <mxGeometry x="468.7" y="11" width="30" height="30" as="geometry" />
        </mxCell>
        <mxCell id="HbvPqLadg1i_rSj2PFfl-3" style="edgeStyle=orthogonalEdgeStyle;rounded=0;orthogonalLoop=1;jettySize=auto;html=1;" parent="UEzPUAAOIrF-is8g5C7q-74" source="D5x38RxMxP4ojH3yNYhL-64" target="D5x38RxMxP4ojH3yNYhL-71" edge="1">
          <mxGeometry relative="1" as="geometry">
            <Array as="points">
              <mxPoint x="290" y="117" />
            </Array>
          </mxGeometry>
        </mxCell>
        <mxCell id="D5x38RxMxP4ojH3yNYhL-64" value="Glue Catalog&lt;br&gt;Parts Flow Data&lt;br&gt;Wholesale Data&lt;br&gt;Retail Sale Data" style="sketch=0;outlineConnect=0;fontColor=#232F3E;gradientColor=none;fillColor=#4D27AA;strokeColor=none;dashed=0;verticalLabelPosition=bottom;verticalAlign=top;align=center;html=1;fontSize=12;fontStyle=0;aspect=fixed;pointerEvents=1;shape=mxgraph.aws4.glue_data_catalog;" parent="UEzPUAAOIrF-is8g5C7q-74" vertex="1">
          <mxGeometry x="130" y="90" width="49.84" height="54" as="geometry" />
        </mxCell>
        <mxCell id="D5x38RxMxP4ojH3yNYhL-75" value="DynamoDB" style="outlineConnect=0;fontColor=#232F3E;gradientColor=#4D72F3;gradientDirection=north;fillColor=#3334B9;strokeColor=#ffffff;dashed=0;verticalLabelPosition=bottom;verticalAlign=top;align=center;html=1;fontSize=12;fontStyle=0;aspect=fixed;shape=mxgraph.aws4.resourceIcon;resIcon=mxgraph.aws4.dynamodb;labelBackgroundColor=#ffffff;" parent="UEzPUAAOIrF-is8g5C7q-74" vertex="1">
          <mxGeometry x="423.70000000000005" y="90" width="45" height="45" as="geometry" />
        </mxCell>
        <mxCell id="Nk9QknCNrntJDcs6LPOg-6" value="" style="outlineConnect=0;dashed=0;verticalLabelPosition=bottom;verticalAlign=top;align=center;html=1;shape=mxgraph.aws3.virtual_private_cloud;fillColor=#F58534;gradientColor=none;" parent="UEzPUAAOIrF-is8g5C7q-74" vertex="1">
          <mxGeometry x="219" y="12" width="40" height="38" as="geometry" />
        </mxCell>
        <mxCell id="D5x38RxMxP4ojH3yNYhL-73" style="edgeStyle=orthogonalEdgeStyle;rounded=0;orthogonalLoop=1;jettySize=auto;html=1;" parent="UEzPUAAOIrF-is8g5C7q-74" source="D5x38RxMxP4ojH3yNYhL-67" target="D5x38RxMxP4ojH3yNYhL-68" edge="1">
          <mxGeometry relative="1" as="geometry" />
        </mxCell>
        <mxCell id="D5x38RxMxP4ojH3yNYhL-67" value="EventBridge" style="sketch=0;points=[[0,0,0],[0.25,0,0],[0.5,0,0],[0.75,0,0],[1,0,0],[0,1,0],[0.25,1,0],[0.5,1,0],[0.75,1,0],[1,1,0],[0,0.25,0],[0,0.5,0],[0,0.75,0],[1,0.25,0],[1,0.5,0],[1,0.75,0]];outlineConnect=0;fontColor=#232F3E;gradientColor=#FF4F8B;gradientDirection=north;fillColor=#BC1356;strokeColor=#ffffff;dashed=0;verticalLabelPosition=bottom;verticalAlign=top;align=center;html=1;fontSize=12;fontStyle=0;aspect=fixed;shape=mxgraph.aws4.resourceIcon;resIcon=mxgraph.aws4.eventbridge;" parent="UEzPUAAOIrF-is8g5C7q-74" vertex="1">
          <mxGeometry x="39.999999999999986" y="224.5" width="51" height="51" as="geometry" />
        </mxCell>
        <mxCell id="D5x38RxMxP4ojH3yNYhL-74" style="edgeStyle=orthogonalEdgeStyle;rounded=0;orthogonalLoop=1;jettySize=auto;html=1;" parent="UEzPUAAOIrF-is8g5C7q-74" source="D5x38RxMxP4ojH3yNYhL-68" target="D5x38RxMxP4ojH3yNYhL-70" edge="1">
          <mxGeometry relative="1" as="geometry" />
        </mxCell>
        <mxCell id="D5x38RxMxP4ojH3yNYhL-68" value="Scheduler Lambda" style="outlineConnect=0;fontColor=#232F3E;gradientColor=#F78E04;gradientDirection=north;fillColor=#D05C17;strokeColor=#ffffff;dashed=0;verticalLabelPosition=bottom;verticalAlign=top;align=center;html=1;fontSize=12;fontStyle=0;aspect=fixed;shape=mxgraph.aws4.resourceIcon;resIcon=mxgraph.aws4.lambda;labelBackgroundColor=#ffffff;spacingTop=6;" parent="UEzPUAAOIrF-is8g5C7q-74" vertex="1">
          <mxGeometry x="174.45" y="228" width="44" height="44" as="geometry" />
        </mxCell>
        <mxCell id="D5x38RxMxP4ojH3yNYhL-70" value="Step Functions" style="points=[[0,0],[0.25,0],[0.5,0],[0.75,0],[1,0],[1,0.25],[1,0.5],[1,0.75],[1,1],[0.75,1],[0.5,1],[0.25,1],[0,1],[0,0.75],[0,0.5],[0,0.25]];outlineConnect=0;gradientColor=none;html=1;whiteSpace=wrap;fontSize=12;fontStyle=0;container=1;pointerEvents=0;collapsible=0;recursiveResize=0;shape=mxgraph.aws4.group;grIcon=mxgraph.aws4.group_aws_step_functions_workflow;strokeColor=#CD2264;fillColor=none;verticalAlign=top;align=left;spacingLeft=30;fontColor=#CD2264;dashed=0;" parent="UEzPUAAOIrF-is8g5C7q-74" vertex="1">
          <mxGeometry x="264.45" y="180" width="146" height="140" as="geometry" />
        </mxCell>
        <mxCell id="D5x38RxMxP4ojH3yNYhL-72" value="Lambda" style="outlineConnect=0;fontColor=#232F3E;gradientColor=#F78E04;gradientDirection=north;fillColor=#D05C17;strokeColor=#ffffff;dashed=0;verticalLabelPosition=bottom;verticalAlign=top;align=center;html=1;fontSize=12;fontStyle=0;aspect=fixed;shape=mxgraph.aws4.resourceIcon;resIcon=mxgraph.aws4.lambda;labelBackgroundColor=#ffffff;spacingTop=6;" parent="D5x38RxMxP4ojH3yNYhL-70" vertex="1">
          <mxGeometry x="81" y="48" width="52" height="52" as="geometry" />
        </mxCell>
        <mxCell id="HbvPqLadg1i_rSj2PFfl-6" style="edgeStyle=orthogonalEdgeStyle;rounded=0;orthogonalLoop=1;jettySize=auto;html=1;" parent="UEzPUAAOIrF-is8g5C7q-74" source="D5x38RxMxP4ojH3yNYhL-71" target="HbvPqLadg1i_rSj2PFfl-5" edge="1">
          <mxGeometry relative="1" as="geometry">
            <Array as="points">
              <mxPoint x="303" y="350" />
              <mxPoint x="470" y="350" />
            </Array>
          </mxGeometry>
        </mxCell>
        <mxCell id="HbvPqLadg1i_rSj2PFfl-14" style="edgeStyle=orthogonalEdgeStyle;rounded=0;orthogonalLoop=1;jettySize=auto;html=1;" parent="UEzPUAAOIrF-is8g5C7q-74" source="D5x38RxMxP4ojH3yNYhL-71" target="D5x38RxMxP4ojH3yNYhL-75" edge="1">
          <mxGeometry relative="1" as="geometry">
            <Array as="points">
              <mxPoint x="320" y="120" />
            </Array>
          </mxGeometry>
        </mxCell>
        <mxCell id="D5x38RxMxP4ojH3yNYhL-71" value="Glue Job" style="sketch=0;outlineConnect=0;fontColor=#232F3E;gradientColor=none;strokeColor=#ffffff;fillColor=#232F3E;dashed=0;verticalLabelPosition=middle;verticalAlign=bottom;align=center;html=1;whiteSpace=wrap;fontSize=10;fontStyle=1;spacing=3;shape=mxgraph.aws4.productIcon;prIcon=mxgraph.aws4.glue;" parent="UEzPUAAOIrF-is8g5C7q-74" vertex="1">
          <mxGeometry x="272.45" y="224" width="60" height="76" as="geometry" />
        </mxCell>
        <mxCell id="D5x38RxMxP4ojH3yNYhL-89" value="CloudWatch" style="outlineConnect=0;fontColor=#232F3E;gradientColor=#F34482;gradientDirection=north;fillColor=#BC1356;strokeColor=#ffffff;dashed=0;verticalLabelPosition=bottom;verticalAlign=top;align=center;html=1;fontSize=12;fontStyle=0;aspect=fixed;shape=mxgraph.aws4.resourceIcon;resIcon=mxgraph.aws4.cloudwatch;labelBackgroundColor=#ffffff;" parent="UEzPUAAOIrF-is8g5C7q-74" vertex="1">
          <mxGeometry x="410.45000000000005" y="10" width="30" height="30" as="geometry" />
        </mxCell>
        <mxCell id="HbvPqLadg1i_rSj2PFfl-2" value="SNS" style="sketch=0;points=[[0,0,0],[0.25,0,0],[0.5,0,0],[0.75,0,0],[1,0,0],[0,1,0],[0.25,1,0],[0.5,1,0],[0.75,1,0],[1,1,0],[0,0.25,0],[0,0.5,0],[0,0.75,0],[1,0.25,0],[1,0.5,0],[1,0.75,0]];outlineConnect=0;fontColor=#232F3E;gradientColor=#FF4F8B;gradientDirection=north;fillColor=#BC1356;strokeColor=#ffffff;dashed=0;verticalLabelPosition=bottom;verticalAlign=top;align=center;html=1;fontSize=12;fontStyle=0;aspect=fixed;shape=mxgraph.aws4.resourceIcon;resIcon=mxgraph.aws4.sns;" parent="UEzPUAAOIrF-is8g5C7q-74" vertex="1">
          <mxGeometry x="523" y="11" width="29" height="29" as="geometry" />
        </mxCell>
        <mxCell id="HbvPqLadg1i_rSj2PFfl-4" style="edgeStyle=orthogonalEdgeStyle;rounded=0;orthogonalLoop=1;jettySize=auto;html=1;" parent="UEzPUAAOIrF-is8g5C7q-74" source="D5x38RxMxP4ojH3yNYhL-72" target="D5x38RxMxP4ojH3yNYhL-75" edge="1">
          <mxGeometry relative="1" as="geometry">
            <Array as="points">
              <mxPoint x="372" y="160" />
              <mxPoint x="440" y="160" />
            </Array>
          </mxGeometry>
        </mxCell>
        <mxCell id="HbvPqLadg1i_rSj2PFfl-15" style="edgeStyle=orthogonalEdgeStyle;rounded=0;orthogonalLoop=1;jettySize=auto;html=1;" parent="UEzPUAAOIrF-is8g5C7q-74" source="HbvPqLadg1i_rSj2PFfl-5" target="HbvPqLadg1i_rSj2PFfl-10" edge="1">
          <mxGeometry relative="1" as="geometry" />
        </mxCell>
        <mxCell id="HbvPqLadg1i_rSj2PFfl-5" value="Parts Retail &lt;br&gt;View Data" style="outlineConnect=0;fontColor=#232F3E;gradientColor=none;fillColor=#277116;strokeColor=none;dashed=0;verticalLabelPosition=bottom;verticalAlign=top;align=center;html=1;fontSize=12;fontStyle=0;aspect=fixed;pointerEvents=1;shape=mxgraph.aws4.bucket_with_objects;labelBackgroundColor=#ffffff;" parent="UEzPUAAOIrF-is8g5C7q-74" vertex="1">
          <mxGeometry x="450" y="320" width="38.54" height="40.07" as="geometry" />
        </mxCell>
        <mxCell id="HbvPqLadg1i_rSj2PFfl-17" style="edgeStyle=orthogonalEdgeStyle;rounded=0;orthogonalLoop=1;jettySize=auto;html=1;" parent="UEzPUAAOIrF-is8g5C7q-74" source="HbvPqLadg1i_rSj2PFfl-8" target="HbvPqLadg1i_rSj2PFfl-9" edge="1">
          <mxGeometry relative="1" as="geometry" />
        </mxCell>
        <mxCell id="HbvPqLadg1i_rSj2PFfl-8" value="Athena" style="sketch=0;points=[[0,0,0],[0.25,0,0],[0.5,0,0],[0.75,0,0],[1,0,0],[0,1,0],[0.25,1,0],[0.5,1,0],[0.75,1,0],[1,1,0],[0,0.25,0],[0,0.5,0],[0,0.75,0],[1,0.25,0],[1,0.5,0],[1,0.75,0]];outlineConnect=0;fontColor=#232F3E;gradientColor=#945DF2;gradientDirection=north;fillColor=#5A30B5;strokeColor=#ffffff;dashed=0;verticalLabelPosition=bottom;verticalAlign=top;align=center;html=1;fontSize=12;fontStyle=0;aspect=fixed;shape=mxgraph.aws4.resourceIcon;resIcon=mxgraph.aws4.athena;" parent="UEzPUAAOIrF-is8g5C7q-74" vertex="1">
          <mxGeometry x="552" y="179.02" width="50" height="50" as="geometry" />
        </mxCell>
        <mxCell id="HbvPqLadg1i_rSj2PFfl-9" value="Tableau Dashboard" style="aspect=fixed;html=1;points=[];align=center;image;fontSize=12;image=img/lib/azure2/general/Dashboard.svg;" parent="UEzPUAAOIrF-is8g5C7q-74" vertex="1">
          <mxGeometry x="610" y="287.06" width="58" height="40.94" as="geometry" />
        </mxCell>
        <mxCell id="HbvPqLadg1i_rSj2PFfl-16" style="edgeStyle=orthogonalEdgeStyle;rounded=0;orthogonalLoop=1;jettySize=auto;html=1;" parent="UEzPUAAOIrF-is8g5C7q-74" source="HbvPqLadg1i_rSj2PFfl-10" target="HbvPqLadg1i_rSj2PFfl-8" edge="1">
          <mxGeometry relative="1" as="geometry" />
        </mxCell>
        <mxCell id="HbvPqLadg1i_rSj2PFfl-10" value="Glue Catalog&lt;br&gt;Parts Retail view&lt;br&gt;" style="sketch=0;outlineConnect=0;fontColor=#232F3E;gradientColor=none;fillColor=#4D27AA;strokeColor=none;dashed=0;verticalLabelPosition=bottom;verticalAlign=top;align=center;html=1;fontSize=12;fontStyle=0;aspect=fixed;pointerEvents=1;shape=mxgraph.aws4.glue_data_catalog;" parent="UEzPUAAOIrF-is8g5C7q-74" vertex="1">
          <mxGeometry x="447.1" y="180" width="44.35" height="48.05" as="geometry" />
        </mxCell>
        <mxCell id="HbvPqLadg1i_rSj2PFfl-19" value="Trigger" style="text;html=1;strokeColor=none;fillColor=none;align=center;verticalAlign=middle;whiteSpace=wrap;rounded=0;" parent="UEzPUAAOIrF-is8g5C7q-74" vertex="1">
          <mxGeometry x="101" y="250.53" width="60" height="19.47" as="geometry" />
        </mxCell>
      </root>
    </mxGraphModel>
  </diagram>
</mxfile>
